<svg xmlns="http://www.w3.org/2000/svg" xml:space="preserve" width="2000" height="536" data-id="lg_0nPJfuF3WSEZOuAszA" data-version="1" viewBox="0 0 2000 536"><g data-padding="20"><g transform="translate(10 10)scale(.96269)"><path fill="none" stroke="#000" stroke-width="23" d="M1028.372.183a267.817 267.817 0 1 0 0 535.634 267.817 267.817 0 1 0 0-535.634Z"/><rect width="395.341" height="130.752" x="430.701" y="-197.376" fill="none" rx="0" ry="0" transform="translate(400.5 425.21)"/><path d="m951.122 256.11-10.63 11.61v-7.04q1.33-2.17 2.63-4.08 1.29-1.9 2.75-3.77 1.46-1.86 3.27-3.95l10.88-12.41h9.24l-17.59 19.84Zm-8.57 21.83h-7.44v-41.47h7.44v12.3l-.14 9.99.14 3.64Zm26.99 0h-8.77l-13.19-19.51 4.68-5.6Zm17.04 0h-7.57v-41.47h8.41l14.33 22.85q.89 1.42 1.89 3.21 1 1.8 2.09 4.01t2.14 4.91h-.83q-.2-2.34-.35-4.8t-.22-4.68q-.07-2.21-.07-3.74v-21.76h7.54v41.47h-8.43l-12.94-20.57q-1.23-1.98-2.31-3.9-1.09-1.92-2.34-4.34-1.26-2.42-3.04-5.85h1.06q.17 3.04.31 5.75.14 2.72.23 4.86.1 2.14.1 3.45Zm57.29.56q-5.46 0-9.77-2.53-4.32-2.53-6.81-7.29t-2.49-11.44q0-6.71 2.49-11.48 2.49-4.78 6.81-7.31 4.31-2.53 9.77-2.53 5.42 0 9.72 2.53t6.79 7.31q2.49 4.77 2.49 11.48 0 6.68-2.49 11.45t-6.79 7.29-9.72 2.52m0-6.65q3.36 0 5.97-1.68 2.6-1.69 4.07-4.96 1.48-3.27 1.48-7.97 0-4.76-1.48-8.03-1.47-3.27-4.07-4.96-2.61-1.68-5.97-1.68-3.4 0-6.02 1.7-2.61 1.7-4.1 4.97t-1.49 8q0 4.7 1.49 7.96 1.49 3.25 4.1 4.95 2.62 1.7 6.02 1.7m46.8 6.09h-8.52l-11.19-41.47h7.99l5.4 22.07q.56 2.39 1.04 5.03.49 2.65.95 5.32t.88 5.23h-1.2q.47-2.56.95-5.23.47-2.67 1-5.32.53-2.64 1.11-5.03l5.62-22.07h7.88l5.59 22.07q.62 2.39 1.13 5.03.52 2.65 1 5.32.49 2.67.99 5.23h-1.28q.45-2.56.91-5.23.45-2.67.96-5.32.5-2.64 1.05-5.03l5.37-22.07h8.02l-11.22 41.47h-8.51l-6.04-22.91q-.84-3.2-1.46-6.96-.63-3.76-1.35-7.96h1.78q-.78 4.07-1.34 7.75-.55 3.69-1.47 7.17Zm-234.69 66.34h-7.43v-16.06l-15.3-25.41h8.68l7.4 13.08q1.17 2.06 2.09 4.01.92 1.94 1.89 4.76h-1.95q.95-2.84 1.86-4.82.9-1.98 2.01-3.95l7.27-13.08h8.63l-15.15 25.41Zm42.29.56q-5.46 0-9.77-2.53-4.32-2.53-6.81-7.29t-2.49-11.44q0-6.71 2.49-11.48t6.81-7.31q4.31-2.53 9.77-2.53 5.43 0 9.73 2.53 4.3 2.54 6.79 7.31t2.49 11.48q0 6.68-2.49 11.45-2.49 4.78-6.79 7.3-4.3 2.51-9.73 2.51m0-6.65q3.37 0 5.97-1.68 2.6-1.69 4.08-4.96 1.47-3.27 1.47-7.97 0-4.76-1.47-8.03-1.48-3.27-4.08-4.95-2.6-1.69-5.97-1.69-3.4 0-6.01 1.7-2.62 1.7-4.11 4.97t-1.49 8q0 4.7 1.49 7.96t4.11 4.95q2.61 1.7 6.01 1.7m46.68 6.71q-5.07 0-8.85-1.91-3.79-1.9-5.88-5.28-2.08-3.39-2.08-7.81v-27.08h7.43v26.47q0 2.58 1.15 4.62 1.16 2.03 3.26 3.18 2.1 1.16 4.97 1.16 2.86 0 4.97-1.16 2.1-1.15 3.25-3.18 1.16-2.04 1.16-4.62v-26.47h7.43v27.08q0 4.42-2.1 7.81-2.1 3.38-5.88 5.28-3.77 1.91-8.83 1.91m36.38-.62h-7.43v-41.47h15.5q4.76 0 8.02 1.67 3.25 1.67 4.92 4.66t1.67 6.94q0 3.96-1.68 6.88t-4.97 4.51q-3.28 1.58-8.07 1.58h-11.08v-6.15h10.11q2.81 0 4.59-.79t2.64-2.32q.87-1.54.87-3.71 0-2.22-.87-3.8-.86-1.57-2.66-2.4-1.79-.84-4.63-.84h-6.93Zm24.21 0h-8.32l-10.07-18.82h8.12Zm34.96 0h-7.43v-41.47h26.55v6.26h-19.12v12.44h17.26v6.18h-17.26Zm35.24 0h-8.12l14.47-41.47h9.44l14.8 41.47h-8.15l-7.38-21.54q-1.08-3.34-2.25-7.56t-2.59-9.59h1.56q-1.39 5.43-2.52 9.67-1.13 4.25-2.13 7.48Zm22.16-10.27h-21.85v-5.99h21.85Zm35.47 10.83q-5.45 0-9.74-2.53-4.28-2.53-6.76-7.29t-2.48-11.44q0-6.71 2.49-11.48t6.79-7.31q4.3-2.53 9.7-2.53 3.4 0 6.36.96 2.97.96 5.29 2.81t3.83 4.53q1.5 2.67 2 6.06h-7.49q-.36-1.86-1.23-3.28-.88-1.42-2.19-2.41t-2.95-1.5q-1.64-.52-3.51-.52-3.39 0-6.02 1.71-2.63 1.72-4.12 4.99t-1.49 7.97q0 4.76 1.5 8.02 1.51 3.25 4.14 4.92t5.97 1.67q1.86 0 3.5-.51 1.65-.52 2.97-1.51 1.32-.98 2.21-2.42.89-1.43 1.22-3.27h7.52q-.42 2.98-1.82 5.58-1.41 2.61-3.69 4.58-2.28 1.98-5.3 3.09t-6.7 1.11m39.09-35.77h-12.81v-6.26h33.01v6.26h-12.77v35.21h-7.43Zm45.06 35.85q-4.81 0-8.36-1.51-3.55-1.5-5.55-4.36-2.01-2.87-2.18-6.96h7.32q.2 2.17 1.37 3.62 1.17 1.44 3.09 2.15t4.26.71q2.45 0 4.32-.75 1.88-.75 2.94-2.1t1.06-3.13q0-1.62-.93-2.67-.94-1.06-2.62-1.8t-3.94-1.29l-4.7-1.23q-5.21-1.33-8.12-4.03-2.9-2.7-2.9-7.1 0-3.67 1.97-6.43 1.98-2.76 5.4-4.27 3.42-1.52 7.77-1.52 4.42 0 7.76 1.53t5.22 4.23 1.96 6.15h-7.21q-.27-2.67-2.38-4.13-2.1-1.46-5.47-1.46-2.33 0-4.02.71-1.68.71-2.59 1.93-.9 1.23-.9 2.81 0 1.73 1.07 2.84 1.07 1.12 2.7 1.78 1.63.67 3.3 1.09l3.87 1q2.31.56 4.48 1.48t3.91 2.32q1.74 1.41 2.77 3.41t1.03 4.7q0 3.65-1.87 6.42-1.86 2.77-5.37 4.31-3.5 1.55-8.46 1.55"/><rect width="170.959" height="13.56" x="542.892" y="-138.78" fill="none" rx="0" ry="0" transform="translate(400.5 521.92)"/><path d="M955.702 393.69h-5.16v-8.73h1.12v7.74h4.04Zm8.2 0h-5.37v-8.73h5.32v.98h-4.21v2.85h3.92v.98h-3.92v2.93h4.26Zm3.5 0h-1.19l3.17-8.73h1.29l3.21 8.73h-1.17l-1.85-5.18q-.17-.48-.39-1.2-.23-.72-.55-1.83h.21q-.32 1.12-.55 1.85t-.38 1.18Zm4.89-2.44h-4.48v-.97h4.48Zm5.28 2.44h-1.11v-8.73h2.98q1.02 0 1.68.35.66.34.98.95t.32 1.39-.32 1.38-.97.93q-.66.34-1.68.34h-2.37v-.99h2.32q.69 0 1.11-.2t.61-.58q.19-.37.19-.88 0-.52-.19-.9-.19-.39-.62-.6-.42-.21-1.11-.21h-1.82Zm5.19 0h-1.29l-2.11-3.93h1.26Zm3.74 0h-1.12v-8.73h1.31l3.55 5.58q.14.22.34.56t.43.77q.24.42.46.91h-.16q-.05-.5-.08-.96-.02-.46-.03-.85v-6.01h1.11v8.73h-1.32l-3.17-4.97q-.21-.35-.43-.71-.22-.37-.5-.87t-.7-1.24h.2q.03.65.06 1.2.02.55.03.96.02.41.02.65Zm9.65 2.1h-.81l.51-3.32h1.21Zm7.7-1.99q-1.12 0-2-.54t-1.38-1.54q-.5-1.01-.5-2.39 0-1.39.5-2.4.5-1 1.38-1.54.88-.55 2-.55.66 0 1.25.19.59.2 1.05.57.47.37.79.9.31.53.43 1.21h-1.12q-.09-.46-.32-.8-.22-.34-.55-.57-.32-.23-.71-.35-.4-.12-.82-.12-.79 0-1.42.4-.64.4-1 1.17-.37.77-.37 1.89 0 1.11.37 1.88t1 1.17q.64.39 1.42.39.42 0 .82-.12.39-.12.71-.35.33-.23.55-.57.23-.34.32-.79h1.12q-.11.67-.43 1.2-.31.52-.78.9-.47.37-1.06.57-.59.19-1.25.19m7.55-.11h-1.11v-8.73h2.99q1.02 0 1.68.35.66.34.98.95.31.61.31 1.39t-.31 1.38q-.32.6-.98.93-.66.34-1.68.34h-2.37v-.99h2.32q.69 0 1.11-.2t.61-.58q.2-.37.2-.88 0-.52-.2-.9-.19-.39-.61-.6t-1.12-.21h-1.82Zm5.19 0h-1.28l-2.11-3.93h1.25Zm8.01 0h-5.38v-8.73h5.33v.98h-4.21v2.85h3.92v.98h-3.92v2.93h4.26Zm3.47 0h-1.18l3.17-8.73h1.29l3.21 8.73h-1.17l-1.85-5.18q-.17-.48-.4-1.2-.22-.72-.55-1.83h.21q-.31 1.12-.54 1.85-.24.73-.39 1.18Zm4.9-2.44h-4.49v-.97h4.49Zm6.44-5.31h-2.75v-.98h6.6v.98h-2.74v7.75h-1.11Zm12.05 7.75h-5.37v-8.73h5.32v.98h-4.21v2.85h3.92v.98h-3.92v2.93h4.26Zm3.57 2.1h-.81l.51-3.32h1.21Zm9.54-2.1h-5.38v-8.73h5.32v.98h-4.2v2.85h3.92v.98h-3.92v2.93h4.26Zm6.78 0h-1.28l-3.21-8.73h1.17l1.85 5.18q.15.44.39 1.19.24.74.55 1.83h-.21q.31-1.12.55-1.85.23-.73.39-1.17l1.79-5.18h1.19Zm9.3.11q-1.12 0-2-.54-.87-.54-1.38-1.54-.5-1.01-.5-2.39 0-1.39.5-2.4.51-1 1.38-1.54.88-.55 2-.55t1.99.55q.87.54 1.37 1.54.51 1.01.51 2.4 0 1.38-.51 2.39-.5 1-1.37 1.54t-1.99.54m0-1.03q.78 0 1.41-.39.63-.4 1-1.17t.37-1.88q0-1.13-.37-1.9t-1-1.16q-.63-.4-1.41-.4-.79 0-1.42.4t-1 1.17q-.38.77-.38 1.89 0 1.11.38 1.88.37.77 1 1.17.63.39 1.42.39m12 .92h-5.15v-8.73h1.11v7.74h4.04Zm6.58 0h-1.28l-3.22-8.73h1.18l1.84 5.18q.16.44.4 1.19.23.74.55 1.83h-.22q.32-1.12.55-1.85.24-.73.39-1.17l1.8-5.18h1.18Zm11.12 0h-5.37v-8.73h5.32v.98h-4.21v2.85h3.92v.98h-3.92v2.93h4.26Zm-107.27-210.092a18.15 18.15 0 0 1 13.43 6.05l.423.436a16 16 0 0 0 1.767 1.573q.375.278.726.508a14.5 14.5 0 0 0 1.706.98l.34.158q.46.242.967.411.625.235 1.27.4.448.132 1.138.278.984.195 1.984.254h.932c1 .002 1.997-.1 2.976-.303q.605-.12.884-.218a13 13 0 0 0 1.5-.471h.11l.75-.327.302-.145a14.5 14.5 0 0 0 1.851-1.053l.641-.448a16 16 0 0 0 1.888-1.706l.4-.435a17.67 17.67 0 0 1 13.31-5.942h4.936a3.025 3.025 0 1 0 0-6.05h-4.876a23.72 23.72 0 0 0-17.92 8.06l-.11.12-.096.097a10 10 0 0 1-1.21 1.028l-.363.254a10 10 0 0 1-1.21.654l-.194.097-.47.205q-.448.165-.909.279l-.52.12a8.5 8.5 0 0 1-1.779.182h-.532a8.5 8.5 0 0 1-1.21-.157c-.255 0-.46-.109-.714-.182l-.738-.23-.545-.23-.218-.108a10 10 0 0 1-1.052-.605l-.315-.315a10 10 0 0 1-1.089-.968l-.23-.242a24.2 24.2 0 0 0-17.932-8.022h-28.544v-68.85h7.55v56.968a3.025 3.025 0 0 0 3.025 3.025h18.816a29.04 29.04 0 0 1 21.574 9.68 3.025 3.025 0 1 0 4.513-4.03 35.1 35.1 0 0 0-26.087-11.76h-15.79v-67.12h15.79a29.04 29.04 0 0 1 20.8 8.845v6.91a3.025 3.025 0 1 0 6.05 0v-6.922a29.04 29.04 0 0 1 20.8-8.845h15.802v25.12a3.025 3.025 0 1 0 6.05 0v-11.87h7.587v52.127a3.025 3.025 0 1 0 6.05 0V107.26a4.6 4.6 0 0 0-4.574-4.574h-9.063V92.437a3.025 3.025 0 0 0-3.025-3.025h-18.815a35.1 35.1 0 0 0-23.813 9.402 35.1 35.1 0 0 0-23.85-9.366h-18.815a3.025 3.025 0 0 0-3.025 2.99v10.211h-9.026a4.6 4.6 0 0 0-4.574 4.61v71.778a4.6 4.6 0 0 0 4.574 4.574Z"/><path d="M1066.981 155.55c6.138-11.914 2.681-26.524-8.144-34.426-10.826-7.902-25.794-6.74-35.27 2.737s-10.639 24.445-2.738 35.27c7.902 10.826 22.512 14.282 34.427 8.145l17.642 17.641a8.295 8.295 0 1 0 11.737-11.724Zm-39.12 2.505a21.15 21.15 0 1 1 14.956 6.196 21.05 21.05 0 0 1-14.955-6.196m52.49 22.579a2.3 2.3 0 0 1-3.17 0l-16.747-16.795c1.14-.97 2.2-2.03 3.17-3.17l16.747 16.795a2.24 2.24 0 0 1 0 3.17"/></g><path fill="transparent" stroke="transparent" d="M732 0h536v536H732z"/></g></svg>